/vscmnt/brussel_pixiu_data/_data_brussel/112/vsc11236/PredSimResults/SUBJ06opt3D/weighted-LRposFixed/expIG/worker_04.mot
version=1
nRows=11
nColumns=50
inDegrees=yes
endheader
                time	         pelvis_tilt	         pelvis_list	     pelvis_rotation	           pelvis_tx	           pelvis_ty	           pelvis_tz	       hip_flexion_r	     hip_adduction_r	      hip_rotation_r	        knee_angle_r	       ankle_angle_r	         mtp_angle_r	       hip_flexion_l	     hip_adduction_l	      hip_rotation_l	        knee_angle_l	       ankle_angle_l	         mtp_angle_l	    lumbar_extension	      lumbar_bending	     lumbar_rotation	 ercspn_r/activation	 intobl_r/activation	 extobl_r/activation	    abd_r/activation	    add_r/activation	hamstrings_r/activation	bifemsh_r/activation	glut_max_r/activation	iliopsoas_r/activation	rect_fem_r/activation	  vasti_r/activation	gastroc_r/activation	 soleus_r/activation	tib_ant_r/activation	 ercspn_l/activation	 intobl_l/activation	 extobl_l/activation	    abd_l/activation	    add_l/activation	hamstrings_l/activation	bifemsh_l/activation	glut_max_l/activation	iliopsoas_l/activation	rect_fem_l/activation	  vasti_l/activation	gastroc_l/activation	 soleus_l/activation	tib_ant_l/activation	
          0.00000000	         -6.75071613	         -0.72980410	          3.75100129	          0.00000000	          0.92824352	         -0.01062550	         32.84363294	         -0.97677401	         -5.78248912	         -7.27641654	          0.29018948	          0.22659608	         -8.92835274	         -0.09087270	         -5.38042550	        -10.78886050	          9.80852517	         32.40364756	         -5.12404974	         -0.53995669	         -8.13242792	          0.19462109	          0.14894237	          0.00999999	          0.00999999	          0.29477172	          0.07578867	          0.12487109	          0.01217759	          0.12529646	          0.01342734	          0.00999999	          0.00999999	          0.00999999	          0.51782526	          0.11739420	          0.00999999	          0.00999999	          0.09607249	          0.00999999	          0.00999999	          0.29347863	          0.01612387	          0.69093007	          0.01267859	          0.00999999	          0.25859879	          0.41688456	          0.02550051	
          0.01235376	         -6.86055615	         -0.66090126	          3.77349396	          0.01663561	          0.92625680	         -0.00968844	         33.18427677	         -0.82488216	         -5.62078496	         -9.28832590	         -0.00417248	          0.22189138	         -9.33330791	         -0.17923326	         -5.76925940	        -11.68018590	          8.94103884	         34.31846077	         -4.78895830	         -0.19683691	         -8.66766085	          0.17725375	          0.12351178	          0.00999999	          0.00999999	          0.42279060	          0.07793137	          0.10355046	          0.07983759	          0.10390320	          0.01113474	          0.00999999	          0.01454184	          0.01753595	          0.52431897	          0.16957090	          0.00999999	          0.00999999	          0.07966896	          0.00999999	          0.00999999	          0.26288849	          0.01454184	          0.71436054	          0.01205895	          0.00999999	          0.23549589	          0.39724409	          0.02114653	
          0.02470753	         -6.94369693	         -0.64332748	          3.78581875	          0.03378971	          0.92451264	         -0.00872264	         33.30455679	         -0.70802370	         -5.26328825	        -11.24250015	         -0.21769812	          0.19357398	         -9.61378631	         -0.35216943	         -6.14528513	        -12.87996786	          7.92763199	         36.31249744	         -4.42022450	          0.21148291	         -9.15930325	          0.14698925	          0.10242324	          0.00999999	          0.01679222	          0.35060285	          0.08296881	          0.08587014	          0.11210469	          0.08616265	          0.00999999	          0.00999999	          0.01205895	          0.01454184	          0.56371818	          0.16581333	          0.00999999	          0.00999999	          0.06606619	          0.00999999	          0.01334639	          0.23692092	          0.01205895	          0.69122654	          0.00999999	          0.00999999	          0.19528706	          0.36914317	          0.01753595	
          0.03706129	         -7.00366825	         -0.66928262	          3.77826819	          0.05124530	          0.92307989	         -0.00762556	         33.24826122	         -0.57029576	         -5.05088165	        -12.94604123	         -0.51946714	          0.17912453	         -9.69927563	         -0.61132055	         -6.52263648	        -14.47818699	          6.74022316	         38.38079259	         -4.04330583	          0.66071659	         -9.59804093	          0.15236887	          0.08493538	          0.00999999	          0.05346977	          0.33064951	          0.08342026	          0.07120857	          0.14568582	          0.07145114	          0.00999999	          0.02229410	          0.00999999	          0.01205895	          0.60149334	          0.16924341	          0.00999999	          0.00999999	          0.05478598	          0.00999999	          0.01106761	          0.21284626	          0.00999999	          0.64919452	          0.00999999	          0.00999999	          0.16194353	          0.34086902	          0.01454184	
          0.04941505	         -7.04128336	         -0.71965805	          3.74901171	          0.06878704	          0.92203858	         -0.00640347	         33.09328718	         -0.42420190	         -5.00831005	        -14.51272796	         -0.82283601	          0.15226634	         -9.54006621	         -0.94099649	         -6.91123802	        -16.52537917	          5.32248497	         40.50463560	         -3.68379308	          1.12877463	         -9.97747754	          0.15246506	          0.07043342	          0.00999999	          0.10458340	          0.31136647	          0.08187299	          0.05905034	          0.16011526	          0.05925149	          0.00999999	          0.08981977	          0.00999999	          0.00999999	          0.64894615	          0.19907994	          0.00999999	          0.00999999	          0.04543176	          0.00999999	          0.00999999	          0.18838443	          0.00999999	          0.55240804	          0.00999999	          0.00999999	          0.13429310	          0.28565050	          0.01205895	
          0.06176882	         -7.05848080	         -0.80091103	          3.70100460	          0.08623506	          0.92152546	         -0.00507805	         32.85874968	         -0.25596047	         -5.07227223	        -16.00283941	         -0.84230983	          0.11764408	         -9.10432372	         -1.35247806	         -7.31532561	        -19.03328080	          3.62047800	         42.57885968	         -3.35589481	          1.62219037	        -10.29486216	          0.15008266	          0.05840754	          0.00999999	          0.15958929	          0.27992656	          0.08163911	          0.04896802	          0.14349396	          0.04913483	          0.00999999	          0.16996951	          0.00999999	          0.00999999	          0.64360528	          0.23127281	          0.00999999	          0.00999999	          0.03767469	          0.00999999	          0.04166196	          0.16797851	          0.00999999	          0.45808927	          0.00999999	          0.00999999	          0.11136375	          0.23687821	          0.00999999	
          0.07412258	         -7.05908726	         -0.91254403	          3.64000642	          0.10341560	          0.92168350	         -0.00367092	         32.53063282	         -0.04722371	         -5.14645039	        -17.41356277	         -0.31112633	          0.14614461	         -8.37000821	         -1.84946574	         -7.72742257	        -21.99451303	          1.63034739	         44.33909853	         -3.07052082	          2.13748881	        -10.55313577	          0.13912329	          0.04843497	          0.00999999	          0.20762026	          0.24809500	          0.07722922	          0.04060717	          0.11899376	          0.04074549	          0.00999999	          0.27299142	          0.00999999	          0.00999999	          0.56380635	          0.26331406	          0.00999999	          0.00999999	          0.03124207	          0.09476011	          0.12154786	          0.17107729	          0.00999999	          0.37987459	          0.00999999	          0.00999999	          0.09234938	          0.19643336	          0.00999999	
          0.08647634	         -7.04835709	         -1.04161241	          3.56894091	          0.12017301	          0.92265164	         -0.00221521	         32.04498430	          0.20675646	         -5.16879674	        -18.60096110	          0.73440339	          0.36362267	         -7.32110116	         -2.42127506	         -8.15408566	        -25.40359705	         -0.51850047	         45.23805134	         -2.83679517	          2.65824806	        -10.75458531	          0.13079179	          0.04016513	          0.00999999	          0.23173189	          0.23084813	          0.07541772	          0.03367385	          0.09867664	          0.03378856	          0.00999999	          0.31953516	          0.00999999	          0.00999999	          0.46754142	          0.27338298	          0.00999999	          0.00999999	          0.02590776	          0.19410944	          0.14172738	          0.14186736	          0.00999999	          0.31501437	          0.00999999	          0.00999999	          0.07658154	          0.16289410	          0.00999999	
          0.09883011	         -7.03068232	         -1.15972628	          3.48614476	          0.13643064	          0.92446629	         -0.00075358	         31.34267523	          0.47974146	         -5.14784054	        -19.37236565	          1.85709248	          0.76611995	         -5.96774632	         -3.04123517	         -8.59719583	        -29.21769357	         -2.74638362	         44.90504256	         -2.65857709	          3.15390289	        -10.89675707	          0.12515687	          0.03330729	          0.00999999	          0.23617751	          0.20843255	          0.07637144	          0.02792434	          0.08182848	          0.02801946	          0.00999999	          0.32656203	          0.00999999	          0.00999999	          0.38771287	          0.27180882	          0.00999999	          0.00999999	          0.02148424	          0.23139872	          0.15570819	          0.11952025	          0.00999999	          0.26122846	          0.00999999	          0.00999999	          0.06350592	          0.13508138	          0.00999999	
          0.11118387	         -7.00795956	         -1.24132455	          3.38949245	          0.15218220	          0.92702368	          0.00067704	         30.42160412	          0.73958903	         -5.09933878	        -19.67808991	          2.79911838	          1.25056639	         -4.36233083	         -3.67941222	         -9.04575928	        -33.26850917	         -5.20270287	         43.50997574	         -2.53517022	          3.59826053	        -10.97591878	          0.11695846	          0.02762036	          0.00999999	          0.22983062	          0.18751739	          0.07954963	          0.02315651	          0.06785699	          0.02323539	          0.00999999	          0.30839969	          0.00999999	          0.00999999	          0.33388859	          0.26813300	          0.00999999	          0.00999999	          0.01781600	          0.24177992	          0.17005740	          0.13538152	          0.00999999	          0.21662602	          0.00999999	          0.00999999	          0.05266285	          0.11201743	          0.00999999	
          0.12353763	         -6.97982440	         -1.26771902	          3.27742084	          0.16743963	          0.93013233	          0.00205836	         29.32816264	          0.96025696	         -5.02194978	        -19.60212228	          3.54553397	          1.74320975	         -2.56500841	         -4.30991745	         -9.48360851	        -37.42466855	         -7.73624127	         40.88837104	         -2.46666030	          3.97082795	        -10.99031158	          0.09698884	          0.02290443	          0.00999999	          0.21787905	          0.16953711	          0.08128564	          0.01920274	          0.05736569	          0.01926815	          0.00999999	          0.27134994	          0.00999999	          0.00999999	          0.29848406	          0.26963152	          0.00999999	          0.00999999	          0.01477407	          0.23610529	          0.17322287	          0.11462321	          0.00999999	          0.17963905	          0.00999999	          0.00999999	          0.04367113	          0.09289145	          0.08070120	
